<svg width="30" height="30" viewBox="0 0 30 30" fill="none" xmlns="http://www.w3.org/2000/svg">
<path d="M29.952 14.7608C29.952 16.1213 29.8322 17.221 28.4519 17.221H17.472V28.0431C17.472 29.4011 16.3563 29.5217 14.976 29.5217C13.5957 29.5217 12.48 29.4011 12.48 28.0431V17.221H1.5001C0.122304 17.221 0 16.1213 0 14.7608C0 13.4004 0.122304 12.3007 1.5001 12.3007H12.48V1.47854C12.48 0.118086 13.5957 0 14.976 0C16.3563 0 17.472 0.118086 17.472 1.47854V12.3007H28.4519C29.8322 12.3007 29.952 13.4004 29.952 14.7608Z" fill="white"/>
</svg>
